<svg width="64" height="79" viewBox="0 0 64 79" fill="none" xmlns="http://www.w3.org/2000/svg">
<path d="M31.9239 77L2 30.9653M31.9239 77L62 30.9653M31.9239 77L16.7716 30.9653M31.9239 77L47.3046 30.9653M31.9239 77L31.4627 30.9653M2 30.9653C2.7868 20.9768 9.72081 1 31.1624 1M2 30.9653C2.83756 30.1631 5.45685 28.5587 9.2335 28.5587C13.0102 28.5587 15.8325 30.1631 16.7716 30.9653M31.1624 1C52.6041 1 60.6548 20.9768 62 30.9653M31.1624 1C18.4924 3.9189 16.2893 22.1931 16.7716 30.9653M31.1624 1C43.3452 1 47 20.9768 47.3046 30.9653M31.1624 1L31.4627 30.9653M62 30.9653C60.9848 30.3701 58.0711 29.0556 54.5381 28.5587C51.0051 28.0619 48.2437 29.9561 47.3046 30.9653M16.7716 30.9653C17.3553 30.1631 19.7107 28.5587 24.4619 28.5587C29.2132 28.5587 31.1088 30.1631 31.4627 30.9653M47.3046 30.9653C46.4162 30.1631 43.5736 28.5587 39.3096 28.5587C35.0457 28.5587 32.3017 30.1631 31.4627 30.9653" stroke="#4DA6FF" stroke-width="2"/>
</svg>
